<svg width="32" height="32" viewBox="0 0 32 32" fill="none" xmlns="http://www.w3.org/2000/svg">
<g id="Chart Multiple / undefined / Glyph: undefined">
<path id="Vector" d="M25.3332 18.0009C25.3332 17.0924 25.6966 16.2688 26.286 15.6676H17.3332C16.0445 15.6676 14.9998 14.6229 14.9998 13.3343V2.67188C8.1583 2.84861 2.6665 8.45009 2.6665 15.3343C2.6665 22.1063 7.9808 27.6369 14.6665 27.9836V26.0009C14.6665 24.16 16.1589 22.6676 17.9998 22.6676C18.7502 22.6676 19.4428 22.9156 19.9998 23.334V22.0009C19.9998 20.16 21.4922 18.6676 23.3332 18.6676C24.0836 18.6676 24.7761 18.9156 25.3332 19.334V18.0009ZM16.9998 2.77623V13.3343C16.9998 13.5184 17.149 13.6676 17.3332 13.6676H27.8912C27.1469 8.00503 22.6624 3.5205 16.9998 2.77623ZM28.6665 16.0013C27.562 16.0013 26.6665 16.8967 26.6665 18.0013V28.668C26.6665 29.7725 27.562 30.668 28.6665 30.668C29.771 30.668 30.6665 29.7725 30.6665 28.668V18.0013C30.6665 16.8967 29.771 16.0013 28.6665 16.0013ZM17.9998 24.0013C16.8953 24.0013 15.9998 24.8968 15.9998 26.0013V28.668C15.9998 29.7725 16.8953 30.668 17.9998 30.668C19.1044 30.668 19.9998 29.7725 19.9998 28.668V26.0013C19.9998 24.8968 19.1044 24.0013 17.9998 24.0013ZM21.3332 22.0013C21.3332 20.8967 22.2286 20.0013 23.3332 20.0013C24.4377 20.0013 25.3332 20.8967 25.3332 22.0013V28.668C25.3332 29.7725 24.4377 30.668 23.3332 30.668C22.2286 30.668 21.3332 29.7725 21.3332 28.668V22.0013Z" fill="#FF9E9E"/>
</g>
</svg>
