<svg width="32" height="32" viewBox="0 0 32 32" fill="none" xmlns="http://www.w3.org/2000/svg">
<g id="Data Trending / undefined / Glyph: undefined">
<path id="Vector" d="M6.66667 5.33333C6.66667 4.59696 6.06971 4 5.33333 4C4.59696 4 4 4.59696 4 5.33333V23.3333C4 25.9107 6.08933 28 8.66667 28H26.6667C27.4031 28 28 27.4031 28 26.6667C28 25.9303 27.4031 25.3333 26.6667 25.3333H8.66667C7.56209 25.3333 6.66667 24.4379 6.66667 23.3333V5.33333ZM20 8C19.2636 8 18.6667 8.59696 18.6667 9.33333C18.6667 10.0697 19.2636 10.6667 20 10.6667H22.7811L17.6667 15.7811L15.2761 13.3905C14.7555 12.8698 13.9112 12.8698 13.3905 13.3905L9.05719 17.7239C8.53649 18.2445 8.53649 19.0888 9.05719 19.6095C9.57789 20.1301 10.4221 20.1301 10.9428 19.6095L14.3333 16.2189L16.7239 18.6095C17.2445 19.1301 18.0888 19.1301 18.6095 18.6095L24.6676 12.5514L24.6667 15.3329C24.6664 16.0693 25.2632 16.6664 25.9996 16.6667C26.736 16.6669 27.3331 16.0701 27.3333 15.3337L27.3353 9.33377C27.3355 8.98007 27.1949 8.64083 26.9449 8.39068C26.6948 8.14053 26.3556 8 26.002 8H20Z" fill="#FF9E9E"/>
</g>
</svg>
