<svg width="32" height="32" viewBox="0 0 32 32" fill="none" xmlns="http://www.w3.org/2000/svg">
<g id="Form / undefined / Glyph: undefined">
<path id="Vector" d="M11 13.3333C10.4477 13.3333 10 13.7811 10 14.3333C10 14.8856 10.4477 15.3333 11 15.3333C11.5523 15.3333 12 14.8856 12 14.3333C12 13.7811 11.5523 13.3333 11 13.3333ZM10 21.6667C10 21.1144 10.4477 20.6667 11 20.6667C11.5523 20.6667 12 21.1144 12 21.6667C12 22.2189 11.5523 22.6667 11 22.6667C10.4477 22.6667 10 22.2189 10 21.6667ZM4 8.33333C4 5.94009 5.94009 4 8.33333 4H23.6667C26.0599 4 28 5.94009 28 8.33333V23.6667C28 26.0599 26.0599 28 23.6667 28H8.33333C5.94009 28 4 26.0599 4 23.6667V8.33333ZM8 14.3333C8 15.9901 9.34315 17.3333 11 17.3333C12.6569 17.3333 14 15.9901 14 14.3333C14 12.6765 12.6569 11.3333 11 11.3333C9.34315 11.3333 8 12.6765 8 14.3333ZM11 18.6667C9.34315 18.6667 8 20.0099 8 21.6667C8 23.3235 9.34315 24.6667 11 24.6667C12.6569 24.6667 14 23.3235 14 21.6667C14 20.0099 12.6569 18.6667 11 18.6667ZM16 14.3333C16 14.8856 16.4477 15.3333 17 15.3333H23C23.5523 15.3333 24 14.8856 24 14.3333C24 13.7811 23.5523 13.3333 23 13.3333H17C16.4477 13.3333 16 13.7811 16 14.3333ZM17 20.6667C16.4477 20.6667 16 21.1144 16 21.6667C16 22.2189 16.4477 22.6667 17 22.6667H23C23.5523 22.6667 24 22.2189 24 21.6667C24 21.1144 23.5523 20.6667 23 20.6667H17ZM8 8.33333C8 8.88561 8.44772 9.33333 9 9.33333H23C23.5523 9.33333 24 8.88561 24 8.33333C24 7.78105 23.5523 7.33333 23 7.33333H9C8.44772 7.33333 8 7.78105 8 8.33333Z" fill="#FF9E9E"/>
</g>
</svg>
