<svg width="16" height="16" viewBox="0 0 16 16" fill="none" xmlns="http://www.w3.org/2000/svg">
<g id="Vector">
<path id="Vector_2" d="M8 6.54688V9.64506H12.3054C12.1164 10.6414 11.549 11.4851 10.6981 12.0524L13.2945 14.0669C14.8072 12.6706 15.68 10.6197 15.68 8.18332C15.68 7.61606 15.6291 7.07055 15.5345 6.54696L8 6.54688Z" fill="#FAF9F9"/>
<path id="Vector_3" d="M3.51625 9.52344L2.93067 9.97169L0.85791 11.5862C2.17427 14.1971 4.87225 16.0008 7.9995 16.0008C10.1594 16.0008 11.9703 15.288 13.294 14.0662L10.6976 12.0517C9.98492 12.5317 9.07582 12.8226 7.9995 12.8226C5.91951 12.8226 4.15229 11.419 3.51952 9.52806L3.51625 9.52344Z" fill="#FAF9F9"/>
<path id="Vector_4" d="M0.858119 4.41406C0.312695 5.49038 0 6.70494 0 7.99947C0 9.29399 0.312695 10.5086 0.858119 11.5849C0.858119 11.5921 3.51998 9.51942 3.51998 9.51942C3.35998 9.03942 3.26541 8.53036 3.26541 7.99939C3.26541 7.46841 3.35998 6.95935 3.51998 6.47935L0.858119 4.41406Z" fill="#FAF9F9"/>
<path id="Vector_5" d="M7.99966 3.18545C9.17786 3.18545 10.2251 3.59271 11.0615 4.37818L13.3524 2.0873C11.9633 0.792777 10.1597 0 7.99966 0C4.87242 0 2.17427 1.79636 0.85791 4.41455L3.51969 6.48001C4.15238 4.58908 5.91968 3.18545 7.99966 3.18545Z" fill="#FAF9F9"/>
</g>
</svg>
