<svg width="32" height="32" viewBox="0 0 32 32" fill="none" xmlns="http://www.w3.org/2000/svg">
<g id="Group / undefined / Glyph: undefined">
<path id="Vector" d="M6.66667 9.33333C8.13943 9.33333 9.33333 8.13943 9.33333 6.66667C9.33333 5.19391 8.13943 4 6.66667 4C5.19391 4 4 5.19391 4 6.66667C4 8.13943 5.19391 9.33333 6.66667 9.33333ZM25.3333 9.33333C26.8061 9.33333 28 8.13943 28 6.66667C28 5.19391 26.8061 4 25.3333 4C23.8605 4 22.6667 5.19391 22.6667 6.66667C22.6667 8.13943 23.8605 9.33333 25.3333 9.33333ZM28 25.3333C28 26.8061 26.8061 28 25.3333 28C23.8605 28 22.6667 26.8061 22.6667 25.3333C22.6667 23.8605 23.8605 22.6667 25.3333 22.6667C26.8061 22.6667 28 23.8605 28 25.3333ZM6.66667 28C8.13943 28 9.33333 26.8061 9.33333 25.3333C9.33333 23.8605 8.13943 22.6667 6.66667 22.6667C5.19391 22.6667 4 23.8605 4 25.3333C4 26.8061 5.19391 28 6.66667 28ZM10.4391 8C10.5865 7.58296 10.6667 7.13419 10.6667 6.66667C10.6667 6.19915 10.5865 5.75037 10.4391 5.33333H16.6667C18.5076 5.33333 20 6.82572 20 8.66667V12H23.3333C25.1743 12 26.6667 13.4924 26.6667 15.3333V21.5609C26.2496 21.4136 25.8008 21.3333 25.3333 21.3333C24.8659 21.3333 24.4171 21.4136 24 21.5609V15.3333C24 14.9652 23.7015 14.6667 23.3333 14.6667H20V16.6667C20 18.5076 18.5076 20 16.6667 20H14.6667V23.3333C14.6667 23.7015 14.9652 24 15.3333 24H21.5609C21.4136 24.4171 21.3333 24.8659 21.3333 25.3333C21.3333 25.8008 21.4136 26.2496 21.5609 26.6667H15.3333C13.4924 26.6667 12 25.1743 12 23.3333V20H8.66667C6.82572 20 5.33333 18.5076 5.33333 16.6667V10.4391C5.75037 10.5865 6.19915 10.6667 6.66667 10.6667C7.13419 10.6667 7.58296 10.5865 8 10.4391V16.6667C8 17.0348 8.29848 17.3333 8.66667 17.3333H12V15.3333C12 13.4924 13.4924 12 15.3333 12H17.3333V8.66667C17.3333 8.29848 17.0348 8 16.6667 8H10.4391ZM17.3333 16.6667V14.6667H15.3333C14.9652 14.6667 14.6667 14.9652 14.6667 15.3333V17.3333H16.6667C17.0348 17.3333 17.3333 17.0348 17.3333 16.6667Z" fill="#FF9E9E"/>
</g>
</svg>
