<svg width="16" height="16" viewBox="0 0 16 16" fill="none" xmlns="http://www.w3.org/2000/svg">
<g id="Location / undefined / Glyph: undefined">
<path id="Vector" d="M12.1044 11.2533L11.313 12.0359C10.7298 12.6083 9.97304 13.3443 9.04244 14.244C8.46097 14.8062 7.53844 14.8062 6.95704 14.2438L4.62961 11.9799C4.3371 11.6927 4.09226 11.4505 3.89503 11.2533C1.62809 8.98636 1.62809 5.31089 3.89503 3.04395C6.16197 0.777015 9.83744 0.777015 12.1044 3.04395C14.3713 5.31089 14.3713 8.98636 12.1044 11.2533ZM9.6665 7.33176C9.6665 6.41119 8.92024 5.66494 7.9997 5.66494C7.07917 5.66494 6.33289 6.41119 6.33289 7.33176C6.33289 8.25229 7.07917 8.99856 7.9997 8.99856C8.92024 8.99856 9.6665 8.25229 9.6665 7.33176Z" fill="#1C1C22"/>
</g>
</svg>
