<svg width="16" height="16" viewBox="0 0 16 16" fill="none" xmlns="http://www.w3.org/2000/svg">
<g id="Call / undefined / Glyph: undefined">
<path id="Vector" d="M5.18123 1.6286L5.89896 1.39926C6.5715 1.18436 7.29004 1.53166 7.5781 2.21082L8.15124 3.56238C8.40104 4.15135 8.26244 4.84396 7.80857 5.2747L6.54571 6.47338C6.62363 7.19034 6.86464 7.89634 7.2687 8.5914C7.67284 9.2864 8.1775 9.86294 8.78277 10.321L10.2996 9.8152C10.8745 9.62347 11.5006 9.8438 11.8533 10.3619L12.6748 11.5689C13.0848 12.1712 13.0111 13.0021 12.5024 13.5128L11.9572 14.0601C11.4146 14.6048 10.6396 14.8024 9.9227 14.5788C8.2301 14.0508 6.6739 12.4833 5.25405 9.8764C3.83214 7.2656 3.3303 5.05053 3.74855 3.2312C3.92455 2.46565 4.46956 1.856 5.18123 1.6286Z" fill="#1C1C22"/>
</g>
</svg>
